<svg xmlns="http://www.w3.org/2000/svg" viewBox="0 0 160 160"><rect width="160" height="160" fill="#F2F1EC"></rect><path d="M59.92 31.51 L69.76 28.53 L72.23 16.47 L87.77 16.47 L90.24 28.53 L100.08 31.51 L109.16 36.36 L119.42 29.58 L130.42 40.58 L123.64 50.84 L128.49 59.92 L131.47 69.76 L143.53 72.23 L143.53 87.77 L131.47 90.24 L128.49 100.08 L123.64 109.16 L130.42 119.42 L119.42 130.42 L109.16 123.64 L100.08 128.49 L90.24 131.47 L87.77 143.53 L72.23 143.53 L69.76 131.47 L59.92 128.49 L50.84 123.64 L40.58 130.42 L29.58 119.42 L36.36 109.16 L31.51 100.08 L28.53 90.24 L16.47 87.77 L16.47 72.23 L28.53 69.76 L31.51 59.92 L36.36 50.84 L29.58 40.58 L40.58 29.58 L50.84 36.36 Z M120.45 80 A40.45 40.45 0 1 0 39.55 80 A40.45 40.45 0 1 0 120.45 80 Z" fill="#1E2124" fill-rule="evenodd"></path><path d="M54.92 80 H105.08 M80 54.92 V105.08" stroke="#1E2124" stroke-width="5.6"></path></svg>